<svg xmlns="http://www.w3.org/2000/svg" viewBox="0 0 128 128" width="100%" height="100%">
  <defs>
    <linearGradient id="bg1" x1="0" y1="0" x2="1" y2="1">
      <stop offset="0%" stop-color="#3B82F6"/>
      <stop offset="100%" stop-color="#1D4ED8"/>
    </linearGradient>
  </defs>
  <circle cx="64" cy="64" r="64" fill="url(#bg1)"/>
  <!-- Hair back -->
  <path d="M38 52 C38 30, 90 30, 90 52 C90 60, 85 68, 85 68 L43 68 C43 68, 38 60, 38 52 Z" fill="#1E293B"/>
  <!-- Head -->
  <ellipse cx="64" cy="60" rx="22" ry="24" fill="#FDBA74"/>
  <!-- Eyes -->
  <circle cx="56" cy="58" r="3" fill="#0F172A"/>
  <circle cx="72" cy="58" r="3" fill="#0F172A"/>
  <circle cx="57.5" cy="56.5" r="1" fill="#FFFFFF"/>
  <circle cx="73.5" cy="56.5" r="1" fill="#FFFFFF"/>
  <!-- Eyebrows -->
  <path d="M51 52 Q56 50 60 53" stroke="#0F172A" stroke-width="2" stroke-linecap="round" fill="none"/>
  <path d="M68 53 Q72 50 77 52" stroke="#0F172A" stroke-width="2" stroke-linecap="round" fill="none"/>
  <!-- Smile -->
  <path d="M59 67 Q64 72 69 67" stroke="#9A3412" stroke-width="2" stroke-linecap="round" fill="none"/>
  <!-- Anime Bangs Hair -->
  <path d="M42 45 C48 30, 65 30, 68 40 C72 32, 85 34, 86 48 C80 44, 74 46, 70 50 C66 42, 54 42, 48 50 Q43 46 42 45 Z" fill="#334155"/>
  <!-- Neck -->
  <rect x="58" y="80" width="12" height="12" fill="#F97316" rx="2"/>
  <!-- Clothes Hoodie -->
  <path d="M32 108 C32 90, 48 84, 64 84 C80 84, 96 90, 96 108 L96 128 L32 128 Z" fill="#0F172A"/>
  <path d="M56 84 L64 102 L72 84" stroke="#F8FAFC" stroke-width="2.5" fill="none" stroke-linecap="round"/>
</svg>

